<svg xmlns="http://www.w3.org/2000/svg" xmlns:xlink="http://www.w3.org/1999/xlink" viewBox="0 0 2342 510" preserveAspectRatio="none"><style>.st0{fill:#144372}.st1{fill:#fff}.st2{fill:#052738}.st3{display:none}.st3,.st4,.st5{fill:none}.st5{stroke:#fff;stroke-miterlimit:10}.st6{fill:#014467}.st7{fill:none;stroke:#03324c;stroke-miterlimit:10}.st8{fill:#03324c}.st9{clip-path:url(#SVGID_2_)}.st10{fill:#044f81;stroke:#f6f6f6;stroke-miterlimit:10}.st11{opacity:.2;fill:#178fcf}.st12{opacity:.4;fill:url(#SVGID_3_)}.st13{opacity:.18;fill:url(#SVGID_4_)}.st14{opacity:.1;fill:#178fcf}.st15{fill:url(#SVGID_5_)}.st16{fill:url(#SVGID_6_)}.st17,.st18{fill-rule:evenodd;clip-rule:evenodd}.st17{stroke:#fff;stroke-miterlimit:10;opacity:.5;fill:#03324c}.st18{opacity:.4;fill:url(#SVGID_7_)}.st19{opacity:.2;fill:#0b598a;stroke:#fff;stroke-miterlimit:10}.st20{opacity:.4;fill:url(#SVGID_8_)}.st21{opacity:.5;fill:none;stroke:#fff;stroke-linecap:round}.st21,.st22,.st23,.st24{stroke-miterlimit:10}.st22{opacity:.4;fill:#55a4db;stroke:#fff}.st23,.st24{fill:#144372;stroke:#0b598a}.st24{opacity:.2;fill:#3a91ce}.st25{opacity:.33;fill:#55a4db}.st26{fill:none;stroke:#fff;stroke-width:1.2491;stroke-miterlimit:10}.st27{opacity:.3}.st28{fill:#223c49}.st29{opacity:.2}.st30{fill:url(#SVGID_9_)}.st31{opacity:.4;fill:url(#SVGID_10_)}.st32,.st33,.st34{stroke-miterlimit:10}.st32{fill-opacity:.33;stroke-width:1.2491;stroke-linecap:round;stroke-linejoin:round;opacity:.51;fill:#55a4db;stroke:#0b598a}.st33,.st34{opacity:.5;fill:#03324c;stroke:#fff}.st34{opacity:.4;fill:#126fa1}.st35{opacity:.4;fill:url(#SVGID_11_)}.st36{fill:#0b598a}.st37{opacity:.18;fill:url(#SVGID_12_)}.st38{opacity:.5;fill:#1c272d;stroke:#f6f6f6;stroke-miterlimit:10}.st39{display:none}.st40{display:inline}.st41{clip-path:url(#SVGID_14_)}.st42{opacity:.5;fill:#044f81;stroke:#f6f6f6;stroke-miterlimit:10}.st43{fill:#178fcf}.st44{fill:url(#SVGID_15_)}.st45{opacity:.4;fill:url(#SVGID_16_)}.st46{opacity:.18;fill:url(#SVGID_17_)}.st47{fill:url(#SVGID_18_)}.st48{fill:url(#SVGID_19_)}.st49,.st50{fill-rule:evenodd;clip-rule:evenodd}.st49{stroke:#fff;stroke-miterlimit:10;fill:#03324c}.st50{opacity:.4;fill:url(#SVGID_20_)}.st51{fill:#03324c;stroke:#fff;stroke-miterlimit:10}.st52{fill:#f4f0e2}.st53{opacity:.4;fill:url(#SVGID_21_)}.st54{fill:#11395e}.st55{fill:#044f81}.st56{fill:none;stroke:#4b94d0;stroke-miterlimit:10}.st56,.st57{stroke-width:.5}.st57,.st58{fill:#144372;stroke:#f4f0e2;stroke-miterlimit:10}.st59{fill:#03324c;stroke-width:.5}.st59,.st60,.st61{stroke:#fff;stroke-miterlimit:10}.st60{stroke-width:2;fill:#03324c}.st61{fill:#0b598a}.st62{opacity:.4;fill:url(#SVGID_22_)}.st63,.st64,.st65,.st66{stroke:#fff;stroke-miterlimit:10}.st63{stroke-linecap:round;fill:none}.st64,.st65,.st66{fill:#55a4db}.st65,.st66{fill:#3a91ce;stroke:#0b598a}.st66{fill:#55a4db;stroke:#fff}.st66,.st67{opacity:.51}.st67,.st68{fill:#55a4db;fill-opacity:.33;stroke:#fff;stroke-width:1.2491;stroke-miterlimit:10}.st69{fill:#3a91ce}.st70{opacity:.4}.st71{fill:url(#SVGID_23_)}.st72,.st73{opacity:.4;fill:url(#SVGID_24_)}.st73{fill:url(#SVGID_25_)}.st74{fill-rule:evenodd;clip-rule:evenodd;fill:#03324c}.st75,.st76,.st77{fill:none;stroke:#fff;stroke-width:.6246;stroke-miterlimit:10}.st76,.st77{stroke-width:3.7474}.st77{stroke-width:2.4983}.st78{opacity:.35;fill:url(#SVGID_26_)}.st79,.st80{fill:none;stroke:#fff;stroke-miterlimit:10}.st79{stroke-linecap:round;stroke-linejoin:round}.st80{opacity:.43;stroke-width:1.2491}.st81{opacity:.4;fill:url(#SVGID_27_)}.st82,.st83,.st84{stroke-miterlimit:10}.st82{stroke-linecap:round;stroke-linejoin:round;fill:none;stroke:#0b598a}.st83,.st84{fill:#144372;stroke:#fff}.st84{fill:#126fa1}.st85{opacity:.4;fill:url(#SVGID_28_)}.st86{fill-rule:evenodd;clip-rule:evenodd;fill:none;stroke:#fff;stroke-miterlimit:10}.st87{opacity:.5;fill:#14333f;stroke-linecap:round;stroke-linejoin:round}.st87,.st88,.st89{stroke:#fff;stroke-miterlimit:10}.st88{opacity:.5;stroke-linecap:round;stroke-linejoin:round;fill:#162f38}.st89{fill:#3a91ce}.st90{opacity:.18;fill:url(#SVGID_29_)}</style><symbol id="New_Symbol" viewBox="-9 -6.1 16 14.1"><path class="st0" d="M-1-5.8c-4 0-6.6.5-6.8.8 0 .1-.9 2.8-.9 6s.9 5.9.9 5.9c.2.4 2.8.9 6.8.9s6.6-.5 6.8-.8c0-.1.7-2.7.7-6s-.7-5.9-.7-6C5.6-5.3 3-5.8-1-5.8z"/><path class="st1" d="M-1 7.5c3.9 0 6.1-.5 6.5-.7.1-.3.7-2.8.7-5.8s-.6-5.6-.7-5.9c-.4-.2-2.6-.7-6.5-.7s-6.1.5-6.5.7c-.1.2-.9 2.8-.9 5.9 0 3 .8 5.7.9 5.8.4.2 2.6.7 6.5.7m0 .5c-3.9 0-7-.5-7-1.1 0 0-.9-2.7-.9-6C-8.9-2.3-8-5-8-5c0-.6 3.1-1.1 7-1.1S6-5.6 6-5c0 0 .7 2.6.7 6S6 6.9 6 6.9C6 7.5 2.9 8-1 8z"/><path class="st2" d="M0-5h-2V7h2z"/><path class="st3" d="M-9 8H7V-6H-9z"/></symbol><pattern width="72" height="72" patternUnits="userSpaceOnUse" id="Whitelines" viewBox="0 -72.5 72 72" overflow="visible"><path class="st4" d="M0-72.5h72v72H0z"/><path class="st5" d="M0-.5h72M0-72.5h72M0-66.5h72M0-60.5h72M0-54.5h72M0-48.5h72M0-42.5h72M0-36.5h72M0-30.5h72M0-24.5h72M0-18.5h72M0-12.5h72M0-6.5h72M0-.5h72"/><g><path class="st5" d="M0-72.5h72"/></g></pattern><pattern width="20" height="20" patternUnits="userSpaceOnUse" id="blue_windows" viewBox="2.7 -20 20 20" overflow="visible"><path class="st4" d="M2.7-20h20V0h-20z"/><path class="st6" d="M25.4-4.1H20v-11.8h5.4zM15.4-4.1H10v-11.8h5.4zM5.4-4.1H0v-11.8h5.4z"/></pattern><pattern width="72" height="72" patternUnits="userSpaceOnUse" id="dark_Blue_lines" viewBox="0 -72.5 72 72" overflow="visible"><path class="st4" d="M0-72.5h72v72H0z"/><path class="st7" d="M0-.5h72M0-72.5h72M0-66.5h72M0-60.5h72M0-54.5h72M0-48.5h72M0-42.5h72M0-36.5h72M0-30.5h72M0-24.5h72M0-18.5h72M0-12.5h72M0-6.5h72M0-.5h72"/><g><path class="st7" d="M0-72.5h72"/></g></pattern><path class="st8" d="M0 0h2342v510H0z" id="bg_blank"/><g id="bg"><defs><path id="SVGID_1_" d="M-.1 0h2342v510H-.1z"/></defs><clipPath id="SVGID_2_"><use xlink:href="#SVGID_1_" overflow="visible"/></clipPath><g class="st9"><path class="st8" d="M1328 374v-40h107v-7h9v6h4v-8.1l10 .5V339h25v-8h27v5h36v38z"/><path class="st11" d="M2028 219.4V468h35V228.9z"/><path class="st8" d="M1894 106v329.4l-18-18.4V106zM436 297h89v141h-89z"/><pattern id="SVGID_3_" xlink:href="#Whitelines" patternTransform="matrix(.6889 -.75 .5511 .6 1975.038 -8179.49)"/><path class="st12" d="M389 339h45v58h-45z"/><pattern id="SVGID_4_" xlink:href="#Whitelines" patternTransform="matrix(.8166 -.7876 .6533 .6301 3591.803 -8264.386)"/><path class="st13" d="M1894 436.4l49 26.5V65.4l-49 10.2z"/><path class="st8" d="M1761 372.6l-44-7.1V282h44zM1981.7 468c.8-1-.3-165.9-.3-165.9l11.6-14.2V468h-11.3z"/><path class="st14" d="M2153 376h106v91h-106z"/><pattern id="SVGID_5_" xlink:href="#dark_Blue_lines" patternTransform="scale(1.0566 1.0274) rotate(-45 -6670.88 -7690.137)"/><path class="st15" d="M2152 379V275h-63v193h181v-89z"/><path class="st8" d="M144 411h78v27h-78z"/><path class="st6" d="M367.7 146.3l2.3 299.1 19-23V206.6zM318 393h-51v-66.2l51 33.5z"/><pattern id="SVGID_6_" xlink:href="#blue_windows" patternTransform="matrix(.5 0 0 .5 -3492.44 -3729.427)"/><path class="st16" d="M90 336h48v90H90z"/><path class="st8" d="M1095 338.4V273h-15l.5-92h42.5v-60h20v-13h25V97h44v14h7V93h43v15h36v19.5l19.1-14.5h37.4l-.5 42h19v17h23v21h9.5l-.5 9h27v43h-43v25h-40v69h-23v36h-231z"/><path class="st17" d="M892 269.5h131.5v-91h-6V151l-7 7.2v-37.7h37v19h10v9h18v17h12V390l-46.8-26.1M786.2 89.6l49.3 8.6-.8 248.3"/><pattern id="SVGID_7_" xlink:href="#Whitelines" patternTransform="matrix(.6889 -.75 .5511 .6 1975.038 -8179.49)"/><path class="st18" d="M786.1 88.7l48.1 10 1.5 274.3H786z"/><path class="st8" d="M1430 222h181v-70.6l51-9.8V268h-103v7h-41v-13h-24v-14h-64z"/><path class="st8" d="M1589 93.4V226h73v-83.6l-11 1.4v-41.4z"/><path class="st19" d="M647 437.5h-92.5v-138h79v-14h14V367"/><path class="st5" d="M1650.5 144v-41.9l-61.6-8.3-80.4 8.3V222"/><pattern id="SVGID_8_" xlink:href="#Whitelines" patternTransform="rotate(-45.001 -8693.598 -6698.03) scale(1 .8)"/><path class="st20" d="M1588 222V93.4l-79 8.7V222z"/><path class="st21" d="M1722.5 280V150.6l-61-8.7-51 9.7v69.9h-179v-23h-27v-10h-10v-19h-22v-17h-19v-41h-37.4l-19.6 15.1v-19.1h-35v-14h-43v17h-7v-13h-44v10h-25v13h-20v58h-44v91H1031M834.6 377.6l.2-114.4 5.7-18.7"/><path class="st5" d="M745.5 377.5h-59V235.1l34.1-8.6h24.9z"/><path class="st22" d="M720.5 227.1l-34 8v143.2l34-.4z"/><path class="st5" d="M786.5 90v266"/><path class="st23" d="M554.8 299.2l-17.3 3.8v134.5H555c0-1-.2-138.3-.2-138.3z"/><path class="st24" d="M554.8 299.2l-17.3 3.8v134.5H555c0-1-.2-138.3-.2-138.3z"/><g class="st27"><path class="st28" d="M934 371V227h8v-44h8v-12h7v-9h5.3l-.4-19.2 47.1-7.1V155h14v22.8l7-.6V363"/><path class="st25" d="M934 371V227h8v-44h8v-12h7v-9h5.3l-.4-19.2 47.1-7.1V155h14v22.8l7-.6V363"/><path class="st5" d="M934.5 371V227.5h7v-44h9v-13h6v-8h5.8l-.1-19.4 47.3-7.4v18.8h13v23.3l8-.6V363"/></g><g class="st29"><pattern id="SVGID_9_" xlink:href="#Whitelines" patternTransform="rotate(-45.001 -8693.598 -6698.03) scale(1 .8)" class="st29"/><path class="st30" d="M934 371V227h8v-44h8v-12h7v-9h5.3l-.4-19.2 47.1-7.1V155h14v22.8l7-.6V363"/><path class="st25" d="M934 371V227h8v-44h8v-12h7v-9h5.3l-.4-19.2 47.1-7.1V155h14v22.8l7-.6V363"/></g><path class="st8" d="M1541 376v-40h-36v-6h-27v9h-25v-15h-10v8h-4v-6h-9v7h-107v40"/><pattern id="SVGID_10_" xlink:href="#Whitelines" patternTransform="rotate(-45.001 -8693.598 -6698.03) scale(1 .8)"/><path class="st31" d="M1612 151v116h50V141"/><path class="st32" d="M1221 422.5l1.3 5.2"/><path class="st33" d="M745.5 99.1l41-10v291.3l-41 .1z"/><path class="st34" d="M1009.5 120.7l-15 3.1v13.6l15.1-2.5z"/><pattern id="SVGID_11_" xlink:href="#Whitelines" patternTransform="matrix(.3382 -.3382 .2706 .2706 -2535.69 -7737.249)"/><path class="st35" d="M1009 120.6l-15 3.2V137"/><path class="st36" d="M559.3 381.6l-7.3.2v-4.2l5.4-1z"/><pattern id="SVGID_12_" xlink:href="#Whitelines" patternTransform="matrix(.8166 -.7876 .6533 .6301 3591.803 -8264.386)"/><path class="st37" d="M318 145h45v300h-45z"/><path class="st8" d="M-2 432h506v13H-2z"/><path class="st38" d="M-2 469.5h2345.5v-42h-37v-91h-48v39h-105v-102h-66v40h-24v-85.6l-34.4-9.5-35.6 9.5v60l-11 10.9V77.5h-18v-17h-21.6l-48.4 10.3v34.7h-20v147h-72v60h-40v-31h-47v37h-175v-43.1l-22.8-.5.4-12.5-23.6.5v-14.4h-64v-9h-41.7l.5 23.7-38.5.4-2 105.9h-50.3v-103h-107v73h-125v20.4l-175 11.3V244.5h-51v102h-142v-80h-47v92h-125v-63h-92v42h-44V204.8l-22.8-59.3h-49.2v182h-51v-54h-46v136h-77v-82h-61v100H-2"/></g></g><g class="st39 st40" id="front"><defs><path id="SVGID_13_" d="M-.1 0h2342v510H-.1z"/></defs><clipPath id="SVGID_14_"><use xlink:href="#SVGID_13_" overflow="visible"/></clipPath><g class="st41"><path class="st8" d="M1328 373v-40h107v-7h9v6h4v-8.1l10 .5V338h25v-8h27v5h36v38z"/><path class="st42" d="M2306.5 427.5v-92h-48v39h-105v-102h-66v40h-24v-85.6l-34.4-9.5-35.6 9.5v60l-11 10.9V76.5h-18v-17h-22l-48 10.3v34.7h-20v147h-72v60h-40v-31h-47v37h-175v-43.1l-23-.5.5-12.5-23.5.5v-14.4h-64v-9h-42l.5 23.7-38.5.4-2 105.9h-50v-103h-107v73h-125v20.4l-175 11.3V243.5h-51v102h-142v-80h-47v92h-125v-63h-92v42h-44V203.8l-22.9-59.3h-49.1v182h-51v-54h-46v136h-77v-82h-61v100h-85v42h2345v-41z"/><path class="st43" d="M2028 218.4V467h35V227.9z"/><path class="st8" d="M1894 105v329.4l-18-18.4V105zM436 296h89v141h-89z"/><path class="st0" d="M1560 266.4V375h50l33.5-17.1 19.5 2-1-92.6z"/><pattern id="SVGID_15_" xlink:href="#dark_Blue_lines" patternTransform="rotate(-45.001 -7125.173 -7391.484)"/><path class="st44" d="M1560 266.4V375h50l33.5-17.1 19.5 2-1-92.6z"/><pattern id="SVGID_16_" xlink:href="#Whitelines" patternTransform="matrix(.6889 -.75 .5511 .6 1895.682 -8266.892)"/><path class="st45" d="M389 338h45v58h-45z"/><path class="st8" d="M796 447.4v-40l249-25.2v30.2z"/><path class="st0" d="M1805 254h71v212h-71z"/><pattern id="SVGID_17_" xlink:href="#Whitelines" patternTransform="matrix(.8166 -.7876 .6533 .6301 3497.735 -8356.122)"/><path class="st46" d="M1894 435.4l49 26.5V64.4l-49 10.2z"/><path class="st8" d="M1761 371.6l-44-7.1V281h44zM1981.7 467c.8-1-.3-165.9-.3-165.9l11.6-14.2V467h-11.3z"/><path class="st43" d="M2153 375h109v90h-109z"/><pattern id="SVGID_18_" xlink:href="#dark_Blue_lines" patternTransform="rotate(-45.001 -7125.173 -7391.484)"/><path class="st47" d="M2151 378V277h-60v188h171v-87z"/><path class="st8" d="M144 410h78v27h-78z"/><path class="st6" d="M367.7 145.3l2.3 299.1 19-23V205.6zM318 392h-51v-66.2l51 33.5z"/><pattern id="SVGID_19_" xlink:href="#blue_windows" patternTransform="matrix(.5 0 0 .5 -3532.44 -3800.427)"/><path class="st48" d="M90 335h48v90H90z"/><path class="st8" d="M1095 327.4V265h-15l.5-89h42.5v-57h20v-13h25V96h44v13h7V92h43v14h36v19.1l19.1-14.1h37.4l-.5 40h19v17h23v20h9.5l-.5 9h27v41h-43v24h-40v66h-23v34h-231z"/><path class="st49" d="M720.5 325v-96.5h22v147-39h44l-.2-248.9 49.3 9.6v241.3h57v-70h131v-91h-6V150l-7 7.2v-37.7h37v19h10v9h18v17h12V389l-46.5-26.1-282.7 15.8s-24.7-3.2-37.7-1.8l-.2-51.9z"/><pattern id="SVGID_20_" xlink:href="#Whitelines" patternTransform="matrix(.6889 -.75 .5511 .6 1895.682 -8266.892)"/><path class="st50" d="M786.1 87.7l48.1 10 1.5 274.3H786z"/><path class="st8" d="M1430 221h181v-70.6l51-9.8V267h-103v7h-41v-13h-24v-14h-64z"/><path class="st8" d="M1589 92.4V225h73v-83.6l-11 1.4v-41.4z"/><path class="st51" d="M627 43.5h-6.5v-1.8c0-.9-.4-1.2-.4-1.2h-1.5l-1.5-27.2-1.5 27.2h-1.5s-1.7.3-1.7 1.2v1.8h-5.3s-1.7.9-1.7 2.1v1.9s11-.6 22 0v-1.9c0-1.2-.4-2.1-.4-2.1z"/><path class="st52" d="M618.5 60c20.1 0 35.5 2.9 35.5 2.9s-16.8-5.5-20.3-7c-4.6-1.9-5.6-4.3-5.6-4.3l4.6-3.9c-.9-1.7-15.1-1.7-15.1-1.7h-1.5s-14.2 0-15.1 1.7l4.6 3.8s-.8 2.4-5.6 4.3c-3.6 1.4-20.3 7-20.3 7S595 60 615 60h3.5z"/><path class="st8" d="M653.9 63.1c-.2 0-15.6-3.1-35.4-3.1H615c-19.8 0-35.2 3.1-35.4 3.1l-.2-.8c.2-.1 16.8-5.5 20.3-6.9 3.6-1.4 4.8-3 5.2-3.7l-4.6-3.8.2-.2c.8-1.6 8.7-1.7 15.2-1.7h2c6.5 0 14.4.2 15.2 1.7l.2.3-4.6 3.7c.4.7 1.8 2.3 5.2 3.7 3.5 1.4 20.1 6.8 20.3 6.8l-.1.9z"/><path class="st1" d="M617.8 46c2 0 14 .2 14.8 1.7l-4.6 3.8s1 2.4 5.6 4.3c3.6 1.5 20.3 7 20.3 7S638.6 60 618.5 60H615c-20.1 0-35.5 2.9-35.5 2.9s16.7-5.6 20.3-7c4.8-1.9 5.6-4.3 5.6-4.3l-4.6-3.9c.8-1.6 12.8-1.7 14.8-1.7h2.3m-.1-1h-2c-14.5 0-15.4 1.7-15.7 2.3l-.4.8.6.5 3.9 3.2c-.5.7-1.8 2-4.7 3.1-3.5 1.4-20.1 6.9-20.3 7l.5 1.9c.2 0 15.5-2.8 35.3-2.8h3.5c19.7 0 35.1 2.8 35.3 2.8l.5-1.9c-.2-.1-16.8-5.5-20.3-7-2.7-1.1-4.1-2.4-4.7-3.2l3.9-3.2.6-.5-.4-.8c-.2-.5-1-2.2-15.6-2.2z"/><pattern id="SVGID_21_" xlink:href="#Whitelines" patternTransform="rotate(-45.002 -10836.73 -97.832) scale(.4305 .3444)"/><path class="st53" d="M620.1 58.9c8.1.1 15.3.7 20.9 1.3-4-1.4-8-2.7-9.5-3.4-4.9-2-6.1-4.6-6.2-4.9l-.3-.7 3.9-3.2c-2.2-.5-7.1-.8-12.7-.8l3.9 11.7z"/><path class="st54" d="M571.6 70.1c11.8-1.4 25.7-2.2 40.7-2.2 19.1 0 36.7 1.3 50.2 3.5 0 0-2.9-1.5-4-2.1-1.1-.6-5.1-2-5.1-2l.7-4c-10.8-1.8-23.5-2.9-37-2.9-13.7 0-26.5 1.1-37.3 2.9l.6 3.5c-.1.1-5.7 1.5-8.8 3.3z"/><path class="st55" d="M648.6 80.8c-18.6-2-19.5-3.2-31.8-3.2-12.7-.1-13.3 1.1-31.2 2l-2.3-7c4.6-.3 18.9-1.3 33.5-1.1 13.3.1 26.8 1.1 33.5 1.6l-1.7 7.7z"/><path class="st56" d="M636.4 85.2c-5.6-.9-12.6-1.5-20.3-1.5-6 0-11.7.3-16.6.9"/><path class="st57" d="M597.4 61.2l.5 4.4c1.6-.1 3.2-.1 4.9-.2l-.3-4.5-5.1.3zM607.5 60.6l.2 4.6c1.6 0 3.2-.1 4.9-.1l-.1-4.6c-1.6.1-3.3.1-5 .1z"/><path class="st57" d="M602.4 60.9l.3 4.5c1.6-.1 3.2-.1 4.9-.2l-.2-4.6c-1.6.1-3.3.2-5 .3zM587.3 62.2l.7 3.9c1.5-.1 3.1-.2 4.9-.3l-.6-4.2c-1.6.2-3.3.4-5 .6zM592.3 61.6l.6 4.2c1.5-.1 3.2-.2 4.9-.2l-.5-4.4c-1.6.1-3.3.3-5 .4zM579.7 63.2l.6 3.5s1-.1 2.8-.2l-.8-3.6c-.9.1-1.8.2-2.6.3z"/><path class="st57" d="M582.3 62.8l.8 3.6c1.3-.1 2.9-.2 4.9-.4l-.7-3.9c-1.7.3-3.3.5-5 .7z"/><path class="st58" d="M612.5 60.5l.1 4.6h4.9v-4.6h-5zM617.5 60.5v4.6h6.2l.1-4.5c-2 0-4.3-.1-6.3-.1z"/><path class="st57" d="M654 63.2s-1.8-.3-5.1-.7l-.7 4c1.7.2 3.5.4 5.1.7l.7-4zM638.9 61.4l-.5 4.2c1.6.1 3.3.2 4.9.4l.6-4.1c-1.5-.2-3.2-.3-5-.5z"/><path class="st57" d="M643.9 61.9l-.6 4.1c1.6.1 3.3.3 4.9.5l.7-4c-1.4-.2-3.1-.4-5-.6zM633.8 61.1l-.3 4.3c1.6.1 3.3.2 4.9.3l.5-4.2c-1.6-.2-3.3-.3-5.1-.4zM623.8 60.6l-.1 4.5c1.6 0 3.3.1 4.9.1l.2-4.4c-1.6-.1-3.3-.1-5-.2z"/><path class="st57" d="M628.8 60.8l-.2 4.4c1.6 0 3.3.1 4.9.2l.3-4.3c-1.6-.1-3.2-.2-5-.3z"/><path class="st59" d="M612.5 83.6c-1-2-1.8-4.7-2.1-6-1.4 0-2.8.1-4.2.1.6 1.3 1.9 4 3.6 5.9.9.1 1.8 0 2.7 0z"/><path class="st59" d="M606.9 83.8c.9-.1 1.9-.1 2.9-.1-1.6-1.9-3-4.6-3.6-5.9-1.6.1-3.1.1-4.6.2.5.8 2.6 3.8 5.3 5.8zM615.4 83.6c-.3-2-.6-4.7-.7-5.9h-4.3c.3 1.2 1.1 4 2.1 6 1-.1 1.9-.1 2.9-.1zM604.3 84c-3.3-1.9-5.9-4.7-6.9-5.8-1.3.1-2.7.2-3.9.3 1.4 1.3 4.6 3.9 8.5 5.7.8-.1 1.5-.1 2.3-.2z"/><path class="st59" d="M602 84.2c-3.9-1.7-7.1-4.4-8.5-5.7-1.6.1-3.1.3-4.6.5 1.5 1 5.6 3.8 10.8 5.4.7 0 1.5-.1 2.3-.2zM604.3 84c.8-.1 1.7-.1 2.5-.2-2.7-2.1-4.8-5.1-5.3-5.9-1.4.1-2.8.2-4.1.3 1 1.1 3.7 3.9 6.9 5.8zM615.6 83.6h2.6c.3-2 .6-4.7.7-5.9h-4.3c.1 1.2.4 3.9.7 5.9h.3zM633.4 84.7c5.2-1.5 9.5-4 11.2-5l-4.2-.6c-1.3 1.1-4.8 3.7-9 5.3.7.1 1.4.2 2 .3z"/><path class="st59" d="M628.9 84.2c.8.1 1.7.2 2.5.3 4.2-1.7 7.6-4.3 9-5.3-1.5-.2-3-.3-4.6-.5-1.3 1.2-3.8 3.8-6.9 5.5zM621.1 83.7c1-1.9 1.8-4.6 2.1-5.9-1.4-.1-2.8-.1-4.2-.1-.1 1.2-.4 3.9-.7 5.9.9 0 1.8 0 2.8.1zM635.2 85c7.5-1.5 13.6-4.1 14.4-4.5-1.6-.3-3.3-.6-5-.8-1.7 1-6 3.5-11.2 5l1.8.3zM580.2 80.3s3.9 2.7 16.8 4.3c-5.6-1.6-10.1-4-12-5-1.6.1-3.2.4-4.8.7z"/><path class="st59" d="M598.6 84.6c.3 0 .7-.1 1-.1-5.1-1.7-9.3-4.4-10.8-5.4-1.3.1-2.5.3-3.8.5 1.8 1 6.3 3.5 12 5 1.3.2 2.7.3 4.2.4-.6-.2-1.1-.3-1.6-.5-.3 0-.7.1-1 .1zM623.8 83.8c1.6-1.9 2.9-4.4 3.6-5.8-1.4-.1-2.8-.1-4.2-.2-.4 1.3-1.2 4-2.1 5.9.9 0 1.8.1 2.7.1zM626.5 84c.8.1 1.6.1 2.4.2 3.1-1.7 5.6-4.2 6.8-5.6-1.3-.1-2.6-.2-4-.3-.7 1.1-2.7 3.8-5.2 5.7z"/><path class="st59" d="M626.5 84c2.5-1.9 4.5-4.6 5.3-5.7-1.5-.1-2.9-.2-4.5-.3-.6 1.4-2 4-3.6 5.8 1 .1 1.9.1 2.8.2zM604.3 84c1 .6 2 1.1 3.1 1.4.8 0 1.6.1 2.4.1-1-.4-2-1-2.9-1.7-.9.1-1.7.1-2.6.2zM631.4 84.5c-1.1.4-2.3.8-3.6 1.1.9 0 1.8-.1 2.6-.1 1-.2 2-.4 2.9-.7-.5-.2-1.2-.3-1.9-.3zM628.9 84.2c-1.1.6-2.3 1.1-3.4 1.4.8 0 1.6 0 2.3-.1 1.2-.3 2.4-.6 3.6-1.1-.8 0-1.6-.1-2.5-.2z"/><path class="st59" d="M626.5 84c-1 .7-2 1.3-3.1 1.7h2.1c1.2-.3 2.4-.8 3.4-1.4-.7-.2-1.5-.3-2.4-.3z"/><path class="st59" d="M623.8 83.8c-.7.8-1.5 1.5-2.3 1.9h2c1.1-.3 2.1-.9 3.1-1.7-1-.1-1.9-.1-2.8-.2zM652.8 81.1c-1-.2-2.1-.4-3.2-.6-.9.4-6.9 3-14.4 4.5.2 0 .4.1.6.1 14.7-1.3 17-4 17-4z"/><path class="st59" d="M633.9 85.2c.6 0 1.3-.1 1.9-.1-.2 0-.4-.1-.6-.1-.4.1-.9.1-1.3.2zM599.6 84.5c.5.2 1.1.3 1.6.5 1.1.1 2.3.2 3.5.3-.9-.3-1.9-.6-2.7-1-.8 0-1.6.1-2.4.2z"/><path class="st59" d="M633.4 84.7c-.9.3-1.9.5-2.9.7 1.2-.1 2.3-.1 3.4-.2.4-.1.9-.2 1.3-.2l-1.8-.3zM623.8 83.8c-.9 0-1.8-.1-2.7-.1-.5.9-.9 1.6-1.5 2h1.9c.8-.4 1.6-1.1 2.3-1.9zM609.7 83.7c-1 0-1.9.1-2.9.1.9.7 1.9 1.3 2.9 1.7.7 0 1.4.1 2.2.1-.7-.4-1.5-1.1-2.2-1.9zM602 84.2c.9.4 1.8.8 2.7 1 .9.1 1.7.1 2.7.2-1.1-.3-2.1-.8-3.1-1.4-.8.1-1.5.1-2.3.2z"/><path class="st59" d="M612.5 83.6c-.9 0-1.9 0-2.8.1.7.8 1.4 1.5 2.2 1.9h2c-.4-.4-.9-1.1-1.4-2zM621.1 83.7c-.9 0-1.9-.1-2.8-.1-.2.9-.3 1.7-.5 2.1h1.9c.4-.4.9-1.1 1.4-2z"/><path class="st59" d="M612.5 83.6c.4.9.9 1.6 1.4 2h1.9c-.2-.4-.3-1.2-.5-2.1-.9.1-1.8.1-2.8.1zM615.6 83.6h-.2c.2.9.3 1.7.5 2.1h1.9c.2-.4.3-1.2.5-2.1h-2.7zM601.7 68.2l1.9 3.1c1.6 0 3.2-.1 4.9-.1l-1.2-3.1c-2 0-3.8 0-5.6.1z"/><path class="st59" d="M607.2 68.1l1.2 3.1h4.8l-.6-3.1c-1.8-.1-3.7-.1-5.4 0zM596.2 68.4l2.5 3c1.6-.1 3.2-.1 4.9-.2l-1.9-3.1c-1.9.1-3.7.2-5.5.3zM580 69.5l3.9 2.7c1.3-.1 2.9-.2 4.9-.3l-3.5-2.9c-1.8.2-3.5.3-5.3.5z"/><path class="st59" d="M572.4 70.2s6.4 2.2 10.3 2c.4 0 .8 0 1.2-.1l-3.9-2.7c-2.5.3-5.1.6-7.6.8zM590.7 68.7l3 3c1.5-.1 3.2-.1 4.9-.2l-2.5-3c-1.8 0-3.6.1-5.4.2z"/><path class="st51" d="M618.5 68.1v3-3H612.6l.6 3.1h3.1c2.4 0 4.8.1 7.1.1l.6-3.1c-1.8-.1-3.5-.1-5.5-.1z"/><path class="st59" d="M585.3 69l3.5 2.9c1.5-.1 3.1-.2 4.9-.3l-3-3c-1.8.2-3.6.3-5.4.4zM651.7 69.9l-3.3 2.7c1.4.1 2.6.2 3.5.3h1.7l3.4-2.4c-1.7-.2-3.5-.4-5.3-.6z"/><path class="st59" d="M646.2 69.4l-2.9 2.9c1.9.1 3.6.3 5.1.4l3.3-2.7c-1.8-.3-3.6-.5-5.5-.6zM663.7 71.4c-2.2-.3-4.4-.6-6.7-.9l-3.4 2.4c1.9 0 5.3-.2 8.9-.9l1.2-.6z"/><path class="st59" d="M640.7 68.9l-2.3 3c1.8.1 3.5.2 5.1.3l2.9-2.9c-2-.1-3.9-.2-5.7-.4zM629.5 68.3l-1.2 3.1c1.7.1 3.4.1 5 .2l1.8-3c-1.9-.1-3.7-.2-5.6-.3zM635.1 68.6l-1.8 3c1.7.1 3.4.2 5 .3l2.3-3c-1.8-.1-3.6-.2-5.5-.3z"/><path class="st59" d="M624 68.2l-.6 3.1c1.7 0 3.3.1 4.9.2l1.2-3.1c-1.8-.1-3.7-.2-5.5-.2z"/><path class="st60" d="M630.3 249.1l-5.4-66.6s-1.7-20.3-1.7-30.5 1.2-25.2 2-31c.8-5.8 5.5-35.2 5.5-35.2l-1.9.3-7.2 44.7c0-2.6.1-4.1.2-5.1.6-4.8 5.1-38.8 5.1-38.8h-1.6l-4.6 32.5s-.9 4.7-3 4.7-2.6-9.2-2.6-9.2l-1.9-28.8-2-.1 2.3 36.3s.2 22.8 0 31.4c-.1 3.9.3 35.3.8 68.3h-9.8c1.4-12 5.8-50.5 5.8-56.7 0-7.4-.8-43.7-1.6-51.9s-2.5-27.2-2.5-27.2l-5.5-.4s7.3 45.5 7.3 50.7 1.1 19.4-1.1 42.3c-.7 7.7-16.2 125.1-16.2 125.1h4.5l8.9-78h10.3c.5 39 1.2 79 1.2 79h2.2l-.1-16h5.4l.6 16h2.6l-.5-16h4.3v-1.1l2 13.1h2.5l-4.3-51.8zm-13.6-57.7c0-3.8 0-13 1.4-15.4 0 0 1.5 3.5 1.6 9 .1 5.4 1 36.1 1 36.1v.9H617c-.1-13-.3-28.5-.3-30.6zm.4 34.6h3.7l.5 13h-4c0-2-.1-7-.2-13zm.3 16h4.1l.5 13h-4.5l-.1-13zm-1.4 44v-.7l1.5-28.3h4.5l1 29h-7zm7.5-64c-.4-10-1.5-38.9-1.7-48.6l2.9 36.1 1 12.5h-2.2zm.1 4h2.3l1.1 13h-3l-.4-13zm2 60l-.9-29h2.3v-2h-2.4l-.4-13h3.1l1.1 13 2.5 31h-5.3z"/><path class="st8" d="M629.8 249.9l-5.4-66.8s-1.7-20.4-1.7-30.5 1.2-25.2 2-31c.8-5.8 5.5-35.3 5.5-35.3l-1.9.3-7.2 44.7c0-2.6.1-3.9.2-4.8.6-4.8 5.1-38.5 5.1-38.5h-1.6l-4.6 32.3s-.9 4.5-3 4.5-2.6-9.3-2.6-9.3l-1.9-28.8-2-.2 2.3 36.3s.2 23 0 31.7c-.1 3.9.3 35.5.8 68.5H604c1.4-12 5.8-50.8 5.8-57 0-7.4-.8-43.8-1.6-52s-2.5-27.2-2.5-27.2l-5.5-.4s7.3 45.5 7.3 50.7 1.1 19.6-1.1 42.6c-.7 7.7-16.2 125.4-16.2 125.4h4.5l8.9-78h10.3c.5 39 1.2 79 1.2 79h2.2l-.1-16h5.4l.6 16h2.6l-.5-15.8 4.6-.1 1.8 11.9h2.5l-4.4-52.2zm-13.6-57.8c0-3.8 0-13.1 1.4-15.5 0 0 1.5 3.5 1.6 8.9.1 5.4 1 36.3 1 36.3v1.2h-3.7c-.1-13-.3-28.8-.3-30.9zm.4 34.9h3.7l.5 13h-4c0-2-.1-7-.2-13zm.3 16h4.1l.5 13H617l-.1-13zm.3 15.4l4.2-.1 1 29-5.6-.3.4-28.6zM623 223c-.4-10-1.5-39.1-1.7-48.8l2.9 36.2 1 12.6H623zm.1 4h2.3l1.1 13h-3l-.4-13zm2 60l-.9-29h4.8v-2h-4.9l-.4-13h3.1l1.1 13 2.5 31h-5.3z"/><path class="st61" d="M647 436.5h-92.5v-138h79v-14h14V366"/><path class="st5" d="M1650.5 143v-41.9l-61.6-8.3-80.4 8.3V221"/><pattern id="SVGID_22_" xlink:href="#Whitelines" patternTransform="rotate(-45.001 -8833.865 -6640.93) scale(1 .8)"/><path class="st62" d="M1588 221V92.4l-79 8.7V221z"/><path class="st63" d="M835.7 376.6l.2-114.4 6.4-19.7h50.9l.3 25h186v-90h44v-58h20v-13h25v-10h44v13h7v-17h43v14h35v19.1l19.6-15.1h37.4v41h19v17h22v19h10v10h27v23h179v-69.9l51-9.7 61 8.7V279"/><path class="st5" d="M745.5 376.5h-59V234.1l34.1-8.6h24.9z"/><path class="st64" d="M720.5 226.1l-34 8v143.2l34-.4z"/><path class="st5" d="M786.5 89v266"/><path class="st23" d="M554.8 298.2l-17.3 3.8v134.5H555c0-1-.2-138.3-.2-138.3z"/><path class="st65" d="M554.8 298.2l-17.3 3.8v134.5H555c0-1-.2-138.3-.2-138.3z"/><path class="st5" d="M562.5 436.5h-37V386l21.2-4.5h15.8z"/><path class="st64" d="M546.5 381.4l-21 4.6v50.5h21z"/><path class="st66" d="M521.5 392.2l-17 3.6v40.7h17z"/><path class="st5" d="M647 436.5h-95.5v-60.3l24.6-5.7h70.4v5.5"/><path class="st5" d="M667.5 376.5v.1l.6-.1h-1.6v.2l-41 3.3v9.5l-22 1.6v9.5l-13 1.1v34.2l56.5 2 68.3-8.9.2-.6v-51.9z"/><path class="st5" d="M667 376.5h48.5v51.4l-68.4 10-26.6-.8V401"/><path class="st67" d="M647.5 379l20.6-1.7v9.7l-41.2 3v-9.4l20.6-1.6"/><path class="st68" d="M646.9 388.6v9.1l-43.2 3.6-.2-10.2zM620.7 399.9v37.3h-28.8v-34.9z"/><path class="st51" d="M1050.5 379.5v36.3l-260 35.2v-47.5z"/><path class="st51" d="M1050.5 372.8v6.7l-257.9 25h-10.1v-9.7z"/><path class="st51" d="M1042.8 365.9l10 7.3-268.5 22.3h-13.1c0-7-8.8-14.1-15.6-14.1l287.2-15.5z"/><path class="st8" d="M688 404h104v47H688z"/><path class="st25" d="M688 404h104v47H688z"/><path class="st5" d="M688.5 403.5h103v47h-103z"/><path class="st8" d="M696 395h88v9h-88z"/><path class="st25" d="M696 395h88v9h-88z"/><path class="st5" d="M695.5 394.5h89v9h-89z"/><path class="st8" d="M771.2 395h-53.7c0-9 12-15.3 26.9-15.3s26.8 6.3 26.8 15.3z"/><path class="st25" d="M771.2 395h-53.7c0-9 12-15.3 26.9-15.3s26.8 6.3 26.8 15.3z"/><path class="st5" d="M771.2 394.5h-53.7c0-8 12-15.3 26.9-15.3s26.8 7.3 26.8 15.3z"/><ellipse class="st51" cx="744.3" cy="387.4" rx="3.2" ry="4.3"/><path class="st69" d="M934 370V226h8v-44h8v-12h7v-9h5.3l-.4-19.2 47.1-7.1V154h14v22.8l7-.6V362"/><path class="st25" d="M934 370V226h8v-44h8v-12h7v-9h5.3l-.4-19.2 47.1-7.1V154h14v22.8l7-.6V362"/><path class="st5" d="M934.5 370V226.5h7v-44h9v-13h6v-8h5.8l-.1-19.4 47.3-7.4v18.8h13v23.3l8-.6V362"/><g class="st70"><pattern id="SVGID_23_" xlink:href="#Whitelines" patternTransform="rotate(-45.001 -8833.865 -6640.93) scale(1 .8)" class="st70"/><path class="st71" d="M934 370V226h8v-44h8v-12h7v-9h5.3l-.4-19.2 47.1-7.1V154h14v22.8l7-.6V362"/><path class="st25" d="M934 370V226h8v-44h8v-12h7v-9h5.3l-.4-19.2 47.1-7.1V154h14v22.8l7-.6V362"/></g><path class="st8" d="M1546 374v-39h-36v-5h-27v8h-25v-14h-10v8h-4v-6h-9v7h-107v38"/><pattern id="SVGID_24_" xlink:href="#Whitelines" patternTransform="rotate(-45.001 -8833.865 -6640.93) scale(1 .8)"/><path class="st72" d="M1546 374v-39h-36v-5h-27v8h-25v-14h-10v8h-4v-6h-9v7h-107v38"/><path class="st5" d="M1546.5 390v-55.5h-36v-5h-27v8h-25v-14h-10v8h-4v-6h-9v7h-107V371"/><path class="st5" d="M1652.5 373.5h-337l-9 17h346zM1306.5 390.5h346v34h-346zM1339.5 424.5h282v41h-282z"/><path class="st8" d="M1677.7 371.4l158.7 18v10l-158.3-12.7v-12.6"/><path class="st1" d="M1836.4 389.4l-159-17-32.6-15 178.7 20.5-177.2-19.8 31.4 13.3z"/><path class="st1" d="M1836.5 399.4L1677 386.6V371h1v14.5z"/><pattern id="SVGID_25_" xlink:href="#Whitelines" patternTransform="rotate(-45.001 -8833.865 -6640.93) scale(1 .8)"/><path class="st73" d="M1847 465h-124v-55.1l124 2.1z"/><path class="st74" d="M1678.5 386.7l158.9 12.7 14 12.6-122.4-1.6z"/><path class="st1" d="M1826.5 412.2l-98.5-2 1.3-1.2 117.7 3z"/><path class="st5" d="M1619.5 398.5h-274.4l-7.5 26h281.9zM1662 266.5h-102.5v7h-42v-12h-23v-14h-64v-9h-42v24h-38V333M1662.5 359v-92"/><use xlink:href="#New_Symbol" width="16" height="14.1" id="XMLID_1_" x="-9" y="-6.1" transform="matrix(.7785 0 0 -.7785 1293.335 111.851)" overflow="visible"/><use xlink:href="#New_Symbol" width="16" height="14.1" id="XMLID_9_" x="-9" y="-6.1" transform="matrix(.7785 0 0 -.7785 1250.864 86.868)" overflow="visible"/><use xlink:href="#New_Symbol" width="16" height="14.1" id="XMLID_10_" x="-9" y="-6.1" transform="matrix(.7785 0 0 -.7785 1200.899 70.63)" overflow="visible"/><use xlink:href="#New_Symbol" width="16" height="14.1" id="XMLID_2_" x="-9" y="-6.1" transform="matrix(.7785 0 0 -.7785 1328.31 150.574)" overflow="visible"/><use xlink:href="#New_Symbol" width="16" height="14.1" id="XMLID_3_" x="-9" y="-6.1" transform="matrix(.7785 0 0 -.7785 1350.795 200.54)" overflow="visible"/><use xlink:href="#New_Symbol" width="16" height="14.1" id="XMLID_4_" x="-9" y="-6.1" transform="matrix(.7785 0 0 -.7785 1357.04 250.504)" overflow="visible"/><use xlink:href="#New_Symbol" width="16" height="14.1" id="XMLID_5_" x="-9" y="-6.1" transform="matrix(.7785 0 0 -.7785 1349.545 302.968)" overflow="visible"/><use xlink:href="#New_Symbol" width="16" height="14.1" id="XMLID_6_" x="-9" y="-6.1" transform="matrix(.7785 0 0 -.7785 1332.058 345.438)" overflow="visible"/><use xlink:href="#New_Symbol" width="16" height="14.1" id="XMLID_7_" x="-9" y="-6.1" transform="matrix(.7785 0 0 -.7785 1299.58 384.161)" overflow="visible"/><use xlink:href="#New_Symbol" width="16" height="14.1" id="XMLID_20_" x="-9" y="-6.1" transform="rotate(180 530.734 55.301) scale(.7785)" overflow="visible"/><use xlink:href="#New_Symbol" width="16" height="14.1" id="XMLID_19_" x="-9" y="-6.1" transform="rotate(180 552.593 43.434) scale(.7785)" overflow="visible"/><use xlink:href="#New_Symbol" width="16" height="14.1" id="XMLID_18_" x="-9" y="-6.1" transform="rotate(180 576.951 35.94) scale(.7785)" overflow="visible"/><use xlink:href="#New_Symbol" width="16" height="14.1" id="XMLID_17_" x="-9" y="-6.1" transform="rotate(180 511.997 77.16) scale(.7785)" overflow="visible"/><use xlink:href="#New_Symbol" width="16" height="14.1" id="XMLID_16_" x="-9" y="-6.1" transform="rotate(180 502.004 99.645) scale(.7785)" overflow="visible"/><use xlink:href="#New_Symbol" width="16" height="14.1" id="XMLID_15_" x="-9" y="-6.1" transform="rotate(180 497.632 125.877) scale(.7785)" overflow="visible"/><use xlink:href="#New_Symbol" width="16" height="14.1" id="XMLID_14_" x="-9" y="-6.1" transform="rotate(180 502.004 151.484) scale(.7785)" overflow="visible"/><use xlink:href="#New_Symbol" width="16" height="14.1" id="XMLID_13_" x="-9" y="-6.1" transform="rotate(180 511.997 174.593) scale(.7785)" overflow="visible"/><use xlink:href="#New_Symbol" width="16" height="14.1" id="XMLID_12_" x="-9" y="-6.1" transform="rotate(180 530.734 195.203) scale(.7785)" overflow="visible"/><circle class="st75" cx="1176.5" cy="247.1" r="41"/><circle class="st75" cx="1176.5" cy="247.1" r="82.4"/><circle class="st75" cx="1176.5" cy="247.1" r="87.8"/><circle class="st75" cx="1176.5" cy="247.1" r="46.8"/><circle class="st75" cx="1176.5" cy="247.1" r="128.4"/><circle class="st75" cx="1176.5" cy="247.1" r="135.1"/><path class="st76" d="M1257.3 412.5c61.2-29.9 103.3-92.8 103.3-165.4 0-101.7-82.4-184.1-184.1-184.1-101.7 0-184.1 82.4-184.1 184.1 0 72 41.4 134.4 101.7 164.6M1131.9 425.7c14.3 3.6 29.2 5.4 44.6 5.4 16.7 0 32.9-2.2 48.3-6.4"/><path class="st5" d="M1173.5 248V63M1178.5 248V63"/><path class="st75" d="M1173.5 216.7l5.1 5.6M1178.6 223.6l-5.1 5.2M1173.5 203.4l5.2 5.9M1178.5 210.3l-5 5.2M1173.5 190.1l5.1 5.9M1178.7 197l-5.2 5.2M1173.5 176.9l5.1 5.7M1178.5 183.7l-5 5.2M1173.5 163.6l5 5.5M1178.6 170.6l-5.1 5.1M1173.5 150.3l5.2 5.4M1178.7 157.3l-5.2 5.1M1173.5 137.1l5.1 5.6M1178.6 144.1l-5.1 5"/><g><path class="st75" d="M1173.5 123.8l5.1 5.1M1178.6 130.8l-5.1 5.1"/></g><g><path class="st75" d="M1173.5 110.5l5.1 5.2M1178.6 116.4l-5.1 6.2"/></g><g><path class="st75" d="M1173.5 97.2l5 6.2M1178.5 104.3l-5 5"/></g><g><path class="st75" d="M1173.5 84l5 4.9M1178.5 89.9l-5 6.1"/></g><g><path class="st75" d="M1173.5 70.7l5 6.2M1178.5 77.8l-5 5"/></g><circle class="st26" cx="1176.5" cy="247.1" r="15.8"/><circle class="st77" cx="1176.5" cy="247.1" r="10"/><path class="st69" d="M1258.4 412.4l18.8 38.6h-49.1l-5.9-24.3s-8.3-14.5-45.7-14.5c-37.4 0-43.9 10.6-43.9 10.6l-6.9 28.2h-49.1l99.9-203.1-40.7 161.7c11.8-1.9 25.6-3.5 40.7-3.5 16.3 0 30.3 1.6 41.6 3.8l-40.9-162.3 81.2 164.8"/><pattern id="SVGID_26_" xlink:href="#dark_Blue_lines" patternTransform="scale(1.1152 1) rotate(-45 -6843.05 -8246.657)"/><path class="st78" d="M1258.4 412.4l18.8 38.6h-49.1l-5.9-24.3s-8.3-14.5-45.7-14.5c-37.4 0-43.9 10.6-43.9 10.6l-6.9 28.2h-49.1l99.9-203.1-40.7 161.7c11.8-1.9 25.6-3.5 40.7-3.5 16.3 0 30.3 1.6 41.6 3.8l-40.9-162.3 81.2 164.8"/><path class="st79" d="M1258.4 412.1l18.8 38.4h-49.1l-5.9-24s-8.3-14.4-45.7-14.4c-37.4 0-43.9 10.4-43.9 10.4l-6.9 28h-49.1l99.9-202.9-40.7 161.8c11.8-1.9 25.6-3.4 40.7-3.4 16.3 0 30.3 1.7 41.6 3.8l-40.9-162.4 81.2 164.7"/><path class="st80" d="M1256.1 408.6c59.5-29.4 100.4-90.7 100.4-161.5 0-99.4-80.6-180-180-180s-180 80.6-180 180c0 70.8 40.9 132.1 100.4 161.5"/><path class="st26" d="M1132.7 421.7c14 3.5 28.7 5.4 43.8 5.4 15.6 0 30.7-2 45.1-5.7"/><pattern id="SVGID_27_" xlink:href="#Whitelines" patternTransform="rotate(-45.001 -8833.865 -6640.93) scale(1 .8)"/><path class="st81" d="M1612 150v116h50V140"/><path class="st82" d="M1331.5 472v20"/><path class="st32" d="M1221 421.5l1.3 5.2"/><path class="st76" d="M1360.6 247.1c0-101.7-82.4-184.1-184.1-184.1"/><path class="st51" d="M745.5 98.1l41-10v291.3l-41 .1z"/><path class="st83" d="M1730.4 409.5l-36.8-16.7-16.1-7.4v-13.7l-32.5-14-36.9 17.8h5.4v9.7l-61.6 28.3h8.6v52h163v-56z"/><path class="st84" d="M1009.5 119.7l-15 3.1v13.6l15.1-2.5z"/><pattern id="SVGID_28_" xlink:href="#Whitelines" patternTransform="matrix(.3382 -.3382 .2706 .2706 -2569.781 -7821.042)"/><path class="st85" d="M1009 119.6l-15 3.2V136"/><path class="st86" d="M1822.6 377.6l13.9 11.8v10l15.7 13.1h-5.7V466"/><path class="st61" d="M546.5 381.5h16v55h-16z"/><path class="st36" d="M559.3 380.6l-7.3.2v-4.2l5.4-1z"/><path class="st87" d="M604.5 454.5v12h438.3l-3 22h291.7v6h392v-23h-392v-5h-289.2l10.7-12H606.3l14.6-6H493.5v6z"/><path class="st87" d="M-1.5 448.5h622v19h-622z"/><path class="st88" d="M1722.5 471.5h621v19h-621z"/><path class="st89" d="M688.3 403.7l104.2.2v47.5l-104.7-.4z"/><pattern id="SVGID_29_" xlink:href="#Whitelines" patternTransform="matrix(.8166 -.7876 .6533 .6301 3497.735 -8356.122)"/><path class="st90" d="M318 144h45v300h-45z"/><path class="st8" d="M-2 431h506v13H-2z"/></g></g></svg>