<svg xmlns="http://www.w3.org/2000/svg" viewBox="0 0 92 92"><style>.st0{fill:#fcfcfc}</style><path class="st0" d="M80.1 69.1h-5.7V30.2l6.9-6.9 5.7-5.7 1.9-1.9c3.5-3.5 3.5-9.1 0-12.6-3.4-3.4-9.3-3.4-12.6 0l-9.5 9.5c-1.2-.4-2.5-.7-3.8-.7H11.4C5.1 11.9 0 17 0 23.3c0 6.3 5.1 11.4 11.4 11.4 2.1 0 4-.6 5.7-1.6v47.4c0 6.3 5.1 11.4 11.4 11.4H80c6.3 0 11.4-5.1 11.4-11.4.2-6.3-5-11.4-11.3-11.4zm-68.7-40c-3.2 0-5.7-2.6-5.7-5.7s2.6-5.7 5.7-5.7 5.7 2.6 5.7 5.7-2.5 5.7-5.7 5.7zm69-22c1.2-1.2 3.3-1.2 4.5 0 1.3 1.3 1.3 3.3 0 4.5L65 31.5c-1.3-1.7-2.8-3.2-4.5-4.5L80.4 7.1zM55.8 40.8c-1.1-1.9-2.6-3.5-4.5-4.5l5.1-5.1c1.8 1.2 3.3 2.8 4.5 4.5l-5.1 5.1zm-4.3 5.4c0 3.2-2.6 5.7-5.7 5.7h-7.3c1-1.7 1.5-3.6 1.5-5.7 0-3.2 2.6-5.7 5.7-5.7 3.2 0 5.8 2.6 5.8 5.7zm10.3-28.6L56 23.3 44.5 34.9c-5.7.7-10.1 5.4-10.1 11.3 0 3.2-2.6 5.8-5.7 5.8v5.6h17.1c5.9 0 10.7-4.4 11.3-10.1L68.7 36v33.2H28.6c-2.1 0-4 .6-5.7 1.6V23.3c0-2.1-.6-4-1.6-5.7h40.5zM28.6 86.3c-3.2 0-5.7-2.6-5.7-5.7s2.6-5.7 5.7-5.7 5.7 2.6 5.7 5.7-2.5 5.7-5.7 5.7zm51.5 0H38.5c1-1.7 1.6-3.6 1.6-5.7s-.6-4-1.6-5.7h41.6c3.2 0 5.7 2.6 5.7 5.7s-2.5 5.7-5.7 5.7z" id="notificationFg"/></svg>