<svg xmlns="http://www.w3.org/2000/svg" width="1061.81" height="460.391" viewBox="0 0 1061.81 460.391"><path d="M244.777 0h41.695v343.374h-41.695v-33.848c-25.508 25.508-63.28 43.658-101.54 43.658C64.26 353.184 0 288.434 0 209.95 0 130.972 64.26 66.712 143.236 66.712c32.375 0 64.75 12.263 91.24 33.356l-21.583 36.3c-20.112-17.66-44.64-27.96-69.656-27.96-56.902 0-101.05 44.147-101.05 101.54 0 57.393 44.148 101.54 101.05 101.54 57.393 0 101.54-44.146 101.54-101.54V0zM447.78 66.713c78.975 0 143.235 64.26 143.235 143.236 0 78.485-64.26 143.235-143.236 143.235-78.486 0-143.237-64.75-143.237-143.236 0-78.977 64.75-143.237 143.236-143.237zm0 244.776c57.392 0 101.54-44.148 101.54-101.542 0-57.393-44.148-101.54-101.54-101.54-56.903 0-101.542 44.147-101.542 101.54 0 57.394 44.64 101.54 101.54 101.54zM573.446 410.578c21.093-20.604 36.79-46.11 36.79-73.09V75.54h41.695v261.945c0 38.262-20.602 74.562-49.053 101.54l-29.43-28.45zm36.79-406.654h41.695V56.41h-41.694V3.925zM810.728 66.713c78.977 0 143.236 64.26 143.236 143.236 0 78.485-64.26 143.235-143.236 143.235-78.485 0-143.235-64.75-143.235-143.236 0-78.977 64.75-143.237 143.235-143.237zm0 244.776c57.394 0 101.54-44.148 101.54-101.542 0-57.393-44.146-101.54-101.54-101.54-56.9 0-101.54 44.147-101.54 101.54 0 57.394 44.64 101.54 101.54 101.54zM511.515 19.954a8 8 0 0 1-8 8h-109a8 8 0 0 1 0-16h109a8 8 0 0 1 8 8zM873.515 20.954a8 8 0 0 1-8 8h-109a8 8 0 0 1 0-16h109a8 8 0 0 1 8 8z"/><g><path d="M755.118 383.333v15.46h14.472v11.38h-14.472v26.594c0 7.298 1.98 11.132 7.792 11.132 2.845 0 4.205-.248 5.938-.743l.247 11.627c-2.227.865-6.185 1.607-11.008 1.607-5.566 0-10.267-1.978-13.11-5.07-3.217-3.463-4.7-8.905-4.7-16.82v-28.325h-8.66v-11.38h8.66v-11.132l14.84-4.33zM836.62 428.355c0 22.14-15.585 32.035-30.922 32.035-17.068 0-30.18-11.75-30.18-31.046 0-19.79 12.987-31.91 31.17-31.91 17.935 0 29.932 12.616 29.932 30.92zm-45.394.62c0 11.626 5.69 20.408 14.967 20.408 8.658 0 14.72-8.534 14.72-20.656 0-9.4-4.206-20.16-14.597-20.16-10.76-.002-15.09 10.388-15.09 20.408zM904.383 428.355c0 22.14-15.585 32.035-30.922 32.035-17.067 0-30.18-11.75-30.18-31.046 0-19.79 12.988-31.91 31.17-31.91 17.936 0 29.933 12.616 29.933 30.92zm-45.393.62c0 11.626 5.69 20.408 14.967 20.408 8.658 0 14.72-8.534 14.72-20.656 0-9.4-4.206-20.16-14.597-20.16-10.76-.002-15.09 10.388-15.09 20.408zM912.88 371.212h15.337v87.818H912.88v-87.818zM955.88 425.264h.248c1.484-2.35 3.216-4.947 4.824-7.05l14.595-19.42h18.306l-22.264 24.614 25.48 35.622h-18.68l-17.314-26.593-5.195 6.06v20.533h-15.213v-87.818h15.214v54.052zM1018.436 381.973c0 4.576-3.34 8.163-8.658 8.163-5.07 0-8.41-3.587-8.41-8.163 0-4.7 3.463-8.287 8.534-8.287 5.195 0 8.41 3.586 8.534 8.287zm-16.203 77.057v-60.236h15.338v60.236h-15.337zM1047.338 383.333v15.46h14.472v11.38h-14.472v26.594c0 7.298 1.98 11.132 7.792 11.132 2.845 0 4.205-.248 5.938-.743l.247 11.627c-2.227.865-6.185 1.607-11.008 1.607-5.566 0-10.267-1.978-13.11-5.07-3.217-3.463-4.7-8.905-4.7-16.82v-28.325h-8.66v-11.38h8.66v-11.132l14.84-4.33z"/></g></svg>