<svg id="Layer_1" xmlns="http://www.w3.org/2000/svg" viewBox="71.1 327.7 109.2 102.2"><style>.st0{fill:#2c2255}.st1{fill:#f7941e}.st2{fill:url(#SVGID_1_)}.st3{fill:url(#SVGID_2_)}.st4{fill:url(#SVGID_3_)}.st5{fill:#fff}</style><path class="st0" d="M101.1 392.9H84.4c2.2 7.6 6.3 14.4 12.4 20.4 9.6 9.6 21.1 14.4 34.7 14.4 2.7 0 5.3-.2 7.9-.6 10.2-1.5 19.1-6.1 26.7-13.8 6.1-6 10.2-12.8 12.4-20.4h-77.4zM91.9 370.2h-8.7c-.3 1.9-.5 3.9-.6 5.9H180.4c-.1-2-.3-4-.6-5.9M82.5 381.6c.1 2 .3 4 .6 5.9H179.5c.3-1.9.5-3.9.6-5.9M178.4 364.7c-2.2-7.6-6.4-14.5-12.4-20.5-7.6-7.6-16.5-12.2-26.6-13.7-2.6-.4-5.2-.6-7.9-.6-13.5 0-25 4.8-34.7 14.3-6 6.1-10.1 12.9-12.4 20.5"/><path class="st1" d="M79.6 378.8c0-25.8 19.4-47.3 44.6-51.1h-1.9C94 327.7 71 350.6 71 378.8c0 28.2 23 51.1 51.3 51.1h1.9c-25.2-3.8-44.6-25.2-44.6-51.1z"/><linearGradient id="SVGID_1_" gradientUnits="userSpaceOnUse" x1="131.386" y1="433.424" x2="131.386" y2="359.789" gradientTransform="translate(0 1)"><stop offset=".303" stop-color="#473788"/><stop offset=".872" stop-color="#2c2255"/></linearGradient><path class="st2" d="M164.7 376.1c-.2-2-.5-4-1-5.9H99.1c-.5 1.9-.8 3.9-1 5.9h66.6z"/><linearGradient id="SVGID_2_" gradientUnits="userSpaceOnUse" x1="131.386" y1="433.425" x2="131.386" y2="359.79" gradientTransform="translate(0 1)"><stop offset=".303" stop-color="#473788"/><stop offset=".872" stop-color="#2c2255"/></linearGradient><path class="st3" d="M164.7 381.6H98.1c.2 2 .5 4 1 5.9h64.5c.5-1.9.9-3.9 1.1-5.9z"/><linearGradient id="SVGID_3_" gradientUnits="userSpaceOnUse" x1="131.386" y1="433.423" x2="131.386" y2="359.792" gradientTransform="translate(0 1)"><stop offset=".303" stop-color="#473788"/><stop offset=".863" stop-color="#2c2255"/></linearGradient><path class="st4" d="M131.4 412.2c13.4 0 24.9-7.9 30.3-19.3h-60.5c5.2 11.4 16.8 19.3 30.2 19.3z"/><g><path class="st5" d="M93.2 381.6H180.3c0-.9.1-1.7.1-2.6 0-1 0-1.9-.1-2.8H82.5c-.1.9-.1 1.9-.1 2.8 0 .9 0 1.8.1 2.6h10.7zM100.9 364.7H84.4c-.5 1.8-.9 3.6-1.2 5.5h96.2c-.3-1.9-.8-3.7-1.3-5.5M173 387.5H83.2c.3 1.9.7 3.7 1.2 5.5h94c.5-1.8 1-3.6 1.3-5.5H173z"/></g></svg>