<svg xmlns="http://www.w3.org/2000/svg" xmlns:xlink="http://www.w3.org/1999/xlink" version="1" width="48" height="48" viewBox="0.171 0.201 512 512"><defs><linearGradient id="i"><stop offset="0" stop-color="#6376e6"/><stop offset=".501" stop-color="#222989"/><stop offset="1" stop-color="#00003d"/></linearGradient><linearGradient id="h"><stop offset="0"/><stop offset=".848" stop-opacity=".498"/><stop offset="1" stop-opacity="0"/></linearGradient><linearGradient id="g"><stop offset="0"/><stop offset="1" stop-opacity="0"/></linearGradient><linearGradient id="f"><stop offset="0"/><stop offset="1" stop-opacity="0"/></linearGradient><linearGradient id="e"><stop offset="0" stop-color="#282828"/><stop offset=".393" stop-color="gray"/><stop offset="1" stop-color="#d9d9d9"/></linearGradient><linearGradient id="d"><stop offset="0" stop-color="#2b2b2b"/><stop offset=".5" stop-color="#828383"/><stop offset="1" stop-color="#dadbdb"/></linearGradient><linearGradient id="c"><stop offset="0" stop-color="#b6b3d8"/><stop offset="1" stop-color="#b6b3d8" stop-opacity="0"/></linearGradient><linearGradient id="b"><stop offset="0"/><stop offset="1" stop-opacity="0"/></linearGradient><linearGradient id="a"><stop offset="0" stop-color="#bab8db"/><stop offset="1" stop-color="#5955a9" stop-opacity=".992"/></linearGradient><radialGradient cx="20.952" cy="-108.969" r="266.765" fx="20.952" fy="-108.969" id="k" xlink:href="#a" gradientUnits="userSpaceOnUse" gradientTransform="matrix(.68174 0 0 .59054 -3.852 -28.935)"/><radialGradient cx="233.888" cy="471.262" r="170.494" fx="233.888" fy="471.262" id="j" xlink:href="#b" gradientUnits="userSpaceOnUse" gradientTransform="matrix(1 0 0 .1854 0 383.885)"/><radialGradient cx="299.701" cy="371.764" r="76.696" fx="299.701" fy="371.764" id="l" xlink:href="#c" gradientUnits="userSpaceOnUse" gradientTransform="matrix(1 0 0 .91216 0 32.655)"/><radialGradient cx="289.441" cy="390.452" r="17.677" fx="289.441" fy="390.452" id="o" xlink:href="#d" gradientUnits="userSpaceOnUse" gradientTransform="matrix(.4147 .33006 -.5059 .63565 346.953 49.48)"/><radialGradient cx="283.507" cy="382.148" r="17.677" fx="283.507" fy="382.148" id="p" xlink:href="#d" gradientUnits="userSpaceOnUse" gradientTransform="matrix(.4147 .33006 -.5059 .63565 448.41 -65.398)"/><radialGradient cx="418.456" cy="181.19" r="63.069" fx="418.456" fy="181.19" id="q" xlink:href="#e" gradientUnits="userSpaceOnUse" gradientTransform="matrix(-.06557 -.05972 1.6871 -1.85217 171.908 540.515)"/><radialGradient cx="284.467" cy="-158.178" r="110.297" fx="284.467" fy="-158.178" id="m" xlink:href="#h" gradientUnits="userSpaceOnUse" gradientTransform="matrix(-1.24976 1.37983 -.0963 -.07297 674.383 -70.59)"/><radialGradient cx="425.51" cy="356.623" r="143.342" fx="425.51" fy="356.623" id="n" xlink:href="#i" gradientUnits="userSpaceOnUse" gradientTransform="matrix(-.10082 -.08087 1.07453 -1.33953 13.843 784.793)"/></defs><path d="M404.382 471.262c.02 17.46-76.32 31.617-170.494 31.617-94.175 0-170.513-14.157-170.494-31.618-.02-17.46 76.32-31.618 170.494-31.618S404.4 453.8 404.382 471.262z" transform="matrix(1.34346 0 0 1.39344 -81.887 -193.706)" fill="url(#j)" stroke="#7b0000" stroke-width="0"/><path d="M277.197 7.985c0 157.045-119.435 284.354-266.766 284.354-147.33 0-266.764-127.31-266.764-284.355 0-157.044 119.435-284.354 266.765-284.354 147.332 0 266.767 127.31 266.767 284.355z" transform="matrix(.8855 0 0 .83922 227.802 232.65)" fill="url(#k)" stroke="#7b0000" stroke-width="0"/><path d="M376.398 371.764c.012 38.645-34.33 69.98-76.697 69.98-42.365 0-76.707-31.335-76.695-69.98-.012-38.645 34.33-69.98 76.696-69.98 42.368 0 76.71 31.335 76.698 69.98z" transform="matrix(1.45946 0 0 1 -195.74 -13.474)" fill="url(#l)" stroke="#7b0000" stroke-width="0"/><path d="M120.527 395.602s21.008 6.1 48.972 9.587c11.324 1.41 54.412 6.347 87.448 6.217 0 0 40.236.046 62.446-3.11 23.24-3.3 36.405-7.513 43.732-15.92.19-2.005 3.536-8.54-5.497-14.84-23.095-16.112-52.95-20.522-110.942-34.294-64.127-16.122-83.29-31.56-92.865-42.734-9.077-11.2 1.704-34.455 53.376-45.864C233.36 248.28 330.8 247.11 330.8 247.11c-27.955-22.195-80.437-61.93-91.165-70.38-9.41-7.412-24.57-18.786-26.2-28.95-2.2-9.893 13.375-14.657 21.62-15.207 26.566-1.832 62.843 1.283 95.09 7.696 16.208 3.222 19.054 2.747 19.054 2.747 23.087 1.1 41.042-10.993 40.126-36.46-.183-25.834-26.012-46.55-54.6-47.454-26.92-.852-93.257 3.848-93.257 3.848 77.317 15.94 89.957 20.008 93.99 29.315 2.382 5.497-3.98 10.962-25.284 9.894-23.195-1.163-70.722-6.78-70.722-6.78-45.255-6.962-76.77-13.558-90.51 4.397-8.977 11.73 1.282 26.017 5.313 34.445 17.956 31.33 49.004 52.826 68.707 67.974 7.413 5.7 30.048 18.322 30.048 18.322-70.356-19.238-126.42-8.428-161.965 10.26C50.19 254.963 57.18 295.775 122.01 333.93c38.293 22.536 57.36 33.362 120.056 41.06 36.648 5.843 42.108 8.234 41.83 11.284-.392 4.294-43.376 5.922-55.19 6.737-30.057 2.074-107.79 2.592-108.18 2.592z" fill="#fff" fill-rule="evenodd" stroke="#000" stroke-width="0"/><path d="M279.476 404.243c-.007-.004-7.446-4.112-16.804-11.4-8.082-6.286-13.538-12.215-13.544-12.22l-.122-.134 3.646-4.67.157-.205.168.197c.017.01 5.4 6.295 13.725 12.78 7.913 6.157 16.594 10.586 16.612 10.595l.23.117-3.912 5.026-.157-.087zm-16.542-11.737c8.545 6.656 15.47 10.644 16.59 11.275l3.37-4.333c-1.422-.743-9.252-4.92-16.452-10.52-7.504-5.846-12.637-11.534-13.614-12.646l-3.264 4.185c.85.905 6.01 6.32 13.37 12.04z" fill="#4d4d4d"/><path fill="url(#m)" stroke="#4a4a4a" stroke-width="0" d="M129.89 112.053h378.894V501.94H129.89z"/><path d="M279.42 402.43s53.226-57.104 105.325-119.984l2.276.702s108.05-118.413 81.62-128c0 0-13.214-26.17-116.858 99.757l-.2 1.89c-47.82 55.15-100.952 122.39-100.952 122.39C209.59 438.18 185.22 481.787 187.237 486c2.74 5.73 92.34-82.997 92.182-83.57z" fill="url(#n)" fill-rule="evenodd" stroke="#000030" stroke-width=".5"/><path d="M248.89 380.284c11.634 11.91 30.597 24.002 30.597 24.002l3.756-4.764c-12.868-6.725-30.78-23.818-30.78-23.818l-3.574 4.58z" fill="url(#o)" fill-rule="evenodd" stroke="#606060" stroke-width=".5"/><path d="M349.522 256.43c20.52 13.1 36.643 28.947 36.643 28.947l2.75-3.206c-10.946-11.58-36.687-29.1-36.687-29.1l-2.706 3.36z" fill="url(#p)" fill-rule="evenodd" stroke="#606060" stroke-width=".5"/><path d="M462.247 151.81c10.81.917 12.642 10.445 12.642 10.445-49.287 51.3-121.475 125.87-121.475 125.87l-3.664-3.114c63.577-76.218 112.497-133.2 112.497-133.2" fill="url(#q)" fill-rule="evenodd" stroke="#4a4a4a" stroke-width=".6"/></svg>