<svg xmlns="http://www.w3.org/2000/svg" width="544.17" height="544.864"><g stroke="#000"><path d="M260.507 170.695L105.984 340.79l153.88 169.388 154.523-170.096-153.88-169.387z" fill="#019833" stroke-width=".946" transform="matrix(1.5324 0 0 1.39397 -124.893 -202.125)"/><path d="M259.864 171.404V156.52L91.82 341.5h14.164l153.88-170.096z" fill="#66fe98" stroke-width=".946" transform="matrix(1.5324 0 0 1.39397 -124.893 -202.125)"/><path d="M259.477 171.404V156.52L427.52 341.5h-14.163l-153.88-170.096z" fill="#45fe02" stroke-width=".946" transform="matrix(1.5324 0 0 1.39397 -124.893 -202.125)"/><path d="M259.864 511.17v14.884L91.82 341.074h14.164l153.88 170.096z" fill="#017d17" stroke-width=".946" transform="matrix(1.5324 0 0 1.39397 -124.893 -202.125)"/><path d="M122.994 175.306h108.354l6.602 7.267v22.3l-5.236 7.017h-11.837v110.754l101.98-110.754h-16.845l-5.918-7.016V181.32l5.463-5.512h109.72l5.463 6.013v22.052L172.62 484.015H144.39l-8.17-5.193V210.888H122.54l-5.01-5.513V181.82l5.464-6.514z" fill="none" stroke-width="18.914" transform="matrix(1.5324 0 0 1.39397 -124.893 -202.125)"/><path d="M259.477 511.17v14.884l168.044-184.98h-14.163L259.477 511.17z" fill="#005d04" stroke-width=".946" transform="matrix(1.5324 0 0 1.39397 -124.893 -202.125)"/><path d="M259.41 155.148L90.734 340.823l167.973 184.902L427.384 340.05 259.41 155.148z" fill="none" stroke-width="5.674" transform="matrix(1.5324 0 0 1.39397 -124.893 -202.125)"/><path d="M232.5 186.642l6.117-3.544-6.278-6.91H123.045l-5.553 6.113v23.123l6.157 6.777 2.937-6.777-3.863-4.252v-16.3l2.897-2.835h104.305l2.575 4.607z" fill="#fefefe" stroke-width=".946" transform="matrix(1.5324 0 0 1.39397 -124.893 -202.125)"/><path transform="matrix(1.38127 0 0 1.38313 -795.195 -460.436)" d="M828.938 369.5l-4.282 4.28v15.72l3.75 3.75h19.813v15.188L717.155 541.28V393.44h21.782l4.468-4.47v-15.906l-4.125-3.187H624.657l-3.75 3.75v16.25l3.813 3.813h19.936v272.25l3.75 3.75h22.657L945.718 386.28v-12.5l-4.283-4.28h-112.5z" fill="none"/><path d="M143.482 204.874v270.62l3.186 4.01-2.5 5.243-7.06-7.75V211.89z" fill="#fefefe" stroke-width=".946" transform="matrix(1.5324 0 0 1.39397 -124.893 -202.125)"/><path d="M125.825 204.874l-1.822 6.515h13.203l7.285-6.516h-18.665z" fill="gray" stroke-width=".946" transform="matrix(1.5324 0 0 1.39397 -124.893 -202.125)"/><path d="M307.186 212.19l2.898-6.554-4.185-4.253v-14.53l4.828-5.314H411.49l3.863 5.67 5.472-4.254-5.633-6.2H306.864l-5.392 5.934v23.3l5.594 5.803M219.523 323.67L209 351.777 327.79 220.66v-15.59l-108.267 118.6z" fill="#fefefe" stroke-width=".946" transform="matrix(1.5324 0 0 1.39397 -124.893 -202.125)"/><path d="M232.26 185.83l5.235-3.758v22.802l-6.033 6.64H219.74v112.383l-10.7 27.814V204.875h19.577l3.642-3.257V185.83z" fill="gray" stroke-width=".946" transform="matrix(1.5324 0 0 1.39397 -124.893 -202.125)"/><path transform="matrix(1.38127 0 0 1.38313 -795.195 -460.436)" d="M828.938 369.5l-4.282 4.28v15.72l3.75 3.75h19.813v15.188L717.155 541.28V393.44h21.782l4.468-4.47v-15.906l-4.125-3.187H624.657l-3.75 3.75v16.25l3.813 3.813h19.936v272.25l3.75 3.75h22.657L945.718 386.28v-12.5l-4.283-4.28h-112.5z" fill="#ccc"/><path d="M415.353 185.933l5.498-3.495v21.922L171.46 484.88h-26.477l2.53-5.532h20.28L415.03 198.336zM327.296 205.25l-5.577 6.39h-14.57l3.415-6.39h16.73z" fill="gray" stroke-width=".946" transform="matrix(1.5324 0 0 1.39397 -124.893 -202.125)"/><g fill="#ccc" stroke-miterlimit="10"><path d="M399.78 560a1.233 1.233 0 0 0-.56.28l-5.314 4.564a1.233 1.233 0 0 0-.344.53l-5.312 14.876a1.233 1.233 0 0 0 .28 1.28l4.064 4.064a1.233 1.233 0 0 0 .875.343h16.405a1.233 1.233 0 0 0 .875-.343l4.28-4.313a1.233 1.233 0 0 0 .314-.53l4.562-15.656a1.233 1.233 0 0 0-.312-1.22l-3.53-3.53a1.233 1.233 0 0 0-.877-.344h-15.156a1.233 1.233 0 0 0-.25 0zm-30.06 41.938a1.233 1.233 0 0 0-.94.906l-2.03 8.062a1.233 1.233 0 0 0 1.188 1.532h9.656l-23.938 68.343a1.233 1.233 0 0 0 1.156 1.626h34.844a1.233 1.233 0 0 0 1.188-.843l2.28-7.344a1.233 1.233 0 0 0-1.187-1.595h-7.875l23.688-69.063a1.233 1.233 0 0 0-1.156-1.625H369.97a1.233 1.233 0 0 0-.25 0zm110.874.25a1.233 1.233 0 0 0-.688.406l-7.25 8.187h-11.53l-7.688-7.967a1.233 1.233 0 0 0-.875-.375H425.03a1.233 1.233 0 0 0-1.155.812l-2.53 7.563a1.233 1.233 0 0 0 1.155 1.625h7.375l-22.938 67.593a1.233 1.233 0 0 0 1.157 1.626h29.312a1.233 1.233 0 0 0 1.156-.812l2.25-6.594a1.233 1.233 0 0 0-1.156-1.625h-5.125l14.626-46.03h26.47l-16.688 53.467a1.233 1.233 0 0 0 1.187 1.594h28.28a1.233 1.233 0 0 0 1.126-.75l2.533-6.062a1.233 1.233 0 0 0-1.125-1.688h-5.125l14.875-46.812h25.187l-16.938 53.718a1.233 1.233 0 0 0 1.188 1.594h31.063a1.233 1.233 0 0 0 1.156-.78l2.53-6.595a1.233 1.233 0 0 0-1.155-1.655h-6.158l18.72-60.78a1.233 1.233 0 0 0-.188-1.126l-5.813-7.814a1.233 1.233 0 0 0-1-.468h-22.217a1.233 1.233 0 0 0-.907.375l-7 7.687h-12.25l-7.25-7.938a1.233 1.233 0 0 0-.906-.375h-17.906a1.233 1.233 0 0 0-.25 0z" stroke-width="8" transform="matrix(1.38127 0 0 1.38313 -266.685 -470.1)"/><path d="M400.03 561.22l-5.31 4.56-5.314 14.876 4.063 4.063h16.405l4.28-4.314 4.564-15.656-3.533-3.53h-15.156zm-30.06 41.936l-2.033 8.063h11.375l-24.5 69.967h34.844l2.28-7.343h-9.592l24.25-70.688H369.97zm110.874.25L473.25 612h-12.625l-8.063-8.344h-27.53l-2.532 7.563h9.094l-23.5 69.217h29.312l2.25-6.593h-6.812l15.406-48.47h29.063l-17.188 55.063h28.28l2.533-6.062h-6.813l15.656-49.25h27.783l-17.438 55.313h31.063l2.53-6.594h-7.843l19.22-62.375-5.814-7.814h-22.217l-7.344 8.063h-13.376l-7.594-8.314h-17.906z" transform="matrix(1.38127 0 0 1.38313 -266.685 -470.1)"/></g></g></svg>