<?xml version="1.0" standalone="no"?><!DOCTYPE svg PUBLIC "-//W3C//DTD SVG 1.1//EN" "http://www.w3.org/Graphics/SVG/1.1/DTD/svg11.dtd"><svg width="200" height="200" viewBox="0 0 200 200" version="1.1" xmlns="http://www.w3.org/2000/svg" xmlns:xlink="http://www.w3.org/1999/xlink"><defs><style type="text/css"><![CDATA[

]]></style></defs><g class="transform-group"><g transform="scale(0.1953125, 0.1953125)"><path d="M963.232503 591.192721c-30.096057-70.864075-70.864075-122.981638-102.08944-134.500579 0.451723-4.517232 0.677585-9.090929 0.677585-13.608161 0-27.385718-7.622829-52.682217-20.553405-73.292087 0.225862-1.581031 0.225862-3.218528 0.225862-4.856024 0-12.591784-2.992666-24.336587-8.131017-34.613289C825.513396 146.245382 705.693821 0 511.678712 0 317.607138 0 197.674631 146.245382 189.882406 330.322581 184.68759 340.655749 181.694924 352.400551 181.694924 364.93587c0 1.581031 0.112931 3.218528 0.169396 4.856024C168.990209 390.401765 161.423846 415.585332 161.423846 443.083981c0 4.517232 0.112931 9.034464 0.564654 13.608161C130.988996 468.211084 89.995117 520.385112 60.01199 591.192721c-38.28354 90.118776-44.494734 176.059112-13.777557 192.151751 21.23099 11.067218 54.432644-14.172815 85.545079-60.417976 12.309457 50.367135 42.800772 96.047643 86.335594 132.637221-45.680507 16.826689-75.494238 44.381803-75.494238 75.607168 0 51.270582 80.689054 92.77265 180.294017 92.77265 89.836449 0 164.257844-33.709843 177.978936-78.035181 3.670251-0.112931 17.899531-0.112931 21.456851 0 13.777557 44.268872 88.255418 78.035181 178.035401 78.035181 99.604963 0 180.294017-41.558533 180.294017-92.77265 0-31.1689-29.870196-58.78048-75.437772-75.607168 43.478357-36.646044 74.026137-82.270085 86.335594-132.637221 31.112435 46.188696 64.257623 71.428729 85.488613 60.417976C1007.783702 767.308299 1001.685439 681.198566 963.232503 591.192721L963.232503 591.192721zM963.232503 591.192721" fill="#fff"></path></g></g></svg>