<?xml version="1.0" standalone="no"?><!DOCTYPE svg PUBLIC "-//W3C//DTD SVG 1.1//EN" "http://www.w3.org/Graphics/SVG/1.1/DTD/svg11.dtd"><svg width="247.265625" height="200" viewBox="0 0 247.265625 200" version="1.1" xmlns="http://www.w3.org/2000/svg" xmlns:xlink="http://www.w3.org/1999/xlink"><defs><style type="text/css"><![CDATA[

]]></style></defs><g class="transform-group"><g transform="scale(0.1953125, 0.1953125)"><path d="M913.266373 487.113539c0 0 165.464771-293.615743-313.067229-139.529456 60.007201-46.975976 50.281458-142.77137 3.241914-176.779688C428.186976 44.242597 0 448.146999 0 688.239369c0 145.949718 157.328202 335.760631 515.782234 335.760631 451.007511 0 592.062574-246.5762 592.062574-366.590602C1107.908374 491.944627 913.266373 487.113539 913.266373 487.113539L913.266373 487.113539zM530.6569 960.878018c-210.08877 19.578621-391.127444-80.03079-404.34937-222.611459-13.34906-142.517102 146.203985-273.909988 356.292756-293.425042 210.08877-19.578621 391.127444 80.03079 404.412937 222.547892C900.235148 809.906512 740.74567 941.299398 530.6569 960.878018L530.6569 960.878018zM530.6569 960.878018M456.474269 547.692843c-113.784841 19.260786-192.607859 113.911975-176.080452 211.296542 16.46384 97.448135 122.048544 160.824384 235.769818 141.563598 113.721274-19.260786 192.544292-113.848408 176.080452-211.296542C675.71668 591.808306 570.195543 528.432057 456.474269 547.692843L456.474269 547.692843zM436.704948 825.607549c-36.741697 10.107145-74.055497-9.026507-83.399839-42.653424-9.217208-33.754051 13.031225-69.224409 49.772922-79.395121 36.741697-10.107145 74.055497 8.96294 83.336272 42.653424C495.695077 779.902911 473.446645 815.37327 436.704948 825.607549L436.704948 825.607549zM532.11894 717.416599c-18.879384 0-34.199019-15.256068-34.199019-34.135452 0-18.879384 15.319635-34.199019 34.199019-34.199019 18.879384 0 34.135452 15.319635 34.135452 34.199019C566.254392 702.160531 550.998324 717.416599 532.11894 717.416599L532.11894 717.416599zM532.11894 717.416599M1195.440065 123.002049c-75.517537-96.558197-196.54901-138.38525-340.655286-117.853126-24.282575 3.432615-41.254951 25.935316-37.758768 50.281458 3.432615 24.219008 25.871749 41.127817 50.281458 37.695201 142.707803-20.341424 219.178844 34.771122 258.208952 84.671178 51.234962 65.537526 65.66466 158.980942 35.915327 232.40077-9.217208 22.756968 1.716308 48.692284 24.473276 57.909492 5.466758 2.224843 11.060649 3.241914 16.654541 3.241914 17.544478 0 34.135452-10.488547 41.191384-27.71519C1285.133031 341.672357 1265.681544 212.822149 1195.440065 123.002049L1195.440065 123.002049zM1195.440065 123.002049M897.501769 166.418275c-24.219008 3.496182-41.127817 25.998883-37.631634 50.281458 3.496182 24.282575 25.871749 41.127817 50.217891 37.695201 40.809982-5.848159 72.657024 3.941151 91.727109 28.35086 17.226643 22.057732 22.312 54.349742 12.522689 78.695884-9.217208 22.756968 1.779875 48.628717 24.473276 57.845925 5.530325 2.224843 11.060649 3.241914 16.654541 3.241914 17.544478 0 34.199019-10.488547 41.191384-27.71519 21.930598-54.031908 12.141287-119.505866-24.854678-166.799677C1049.108945 198.964554 996.28481 152.306413 897.501769 166.418275L897.501769 166.418275zM897.501769 166.418275" fill="#fff"></path></g></g></svg>